# xmcd CD database file
#
# Track frame offsets:
#	150
#	13593
#	44160
#	71630
#	87876
#	106601
#	140736
#	154598
#	188249
#
# Disc length: 3140 seconds
#
# Revision: 1
# Processed by: cddbd v1.5.2PL0 Copyright (c) Steve Scherf et al.
# Submitted via: CDex 1.51
#
DISCID=750c4209
DTITLE=Taximi - Palestina Dreamin'
DYEAR=2002
DGENRE=Jazz
TTITLE0=Palestina Dreamin' (Romano Todesco)
TTITLE1=Gankino Horo (trad. Bulgaria)
TTITLE2=Gigansko (trad. Macedonia)
TTITLE3=Cacjak (trad. Serbia)
TTITLE4=Postupano (trad. Macedonia)
TTITLE5=Stin Magemeny (trad. Grecia)
TTITLE6=Malesevsko (trad. Macedonia)
TTITLE7=Schere (trag. Kelzmer)
TTITLE8=Ramo Ramo (trad. Serbia)
EXTD=YEAR: 2002
EXTT0=
EXTT1=
EXTT2=
EXTT3=
EXTT4=
EXTT5=
EXTT6=
EXTT7=
EXTT8=
PLAYORDER=
